<svg xmlns="http://www.w3.org/2000/svg" viewBox="0 0 100 100">
  <defs>
    <linearGradient id="toothGradient" x1="0%" y1="0%" x2="0%" y2="100%">
      <stop offset="0%" style="stop-color:#ffffff;stop-opacity:1" />
      <stop offset="100%" style="stop-color:#e2e8f0;stop-opacity:1" />
    </linearGradient>
  </defs>
  <circle cx="50" cy="50" r="48" fill="#0f172a" stroke="#38bdf8" stroke-width="3"/>
  <path d="M 50 25 
           C 35 25, 30 35, 30 45
           C 30 50, 32 55, 35 62
           C 37 67, 38 72, 38 77
           C 38 82, 40 85, 45 85
           C 48 85, 49 83, 50 80
           C 51 83, 52 85, 55 85
           C 60 85, 62 82, 62 77
           C 62 72, 63 67, 65 62
           C 68 55, 70 50, 70 45
           C 70 35, 65 25, 50 25 Z" 
        fill="url(#toothGradient)" 
        stroke="#cbd5e1" 
        stroke-width="1.5"/>
  
  
  <ellipse cx="43" cy="38" rx="6" ry="10" fill="rgba(255,255,255,0.6)" opacity="0.8"/>
  
  
  <circle cx="60" cy="50" r="2" fill="#38bdf8" opacity="0.9"/>
  <circle cx="40" cy="60" r="1.5" fill="#38bdf8" opacity="0.7"/>
</svg>
